# xmcd
#
# Track frame offsets:
#	150
#	4688
#	16362
#	32252
#	47820
#	59374
#	73889
#	78425
#	96135
#	107948
#	123455
#	143295
#	166180
#	179165
#	194861
#	205821
#	209917
#
# Disc length: 2826 seconds
#
# Revision: 1
# Processed by: cddbd v1.5.2PL0 Copyright (c) Steve Scherf et al.
# Submitted via: audiograbber 1.83.01
#
DISCID=f80b0811
DTITLE=Kleine Sanders - Egotrippers
DYEAR=1900
DGENRE=
TTITLE0=Intro
TTITLE1=Kik Na Je Eigen
TTITLE2=Riesttaarte
TTITLE3=Lelik
TTITLE4=Zand Ip Me Bolzak
TTITLE5=Egotrippers
TTITLE6=Anaal Ije Kakker (Skit)
TTITLE7=Piroatn (fear. Primeur)
TTITLE8=Zelfbeklach
TTITLE9=Fata Morgana
TTITLE10=Freddy
TTITLE11=Zeg Daj Slette Zied
TTITLE12=O.A.R.
TTITLE13=Volgens Wens (feat. Plukketuffer)
TTITLE14=De Boazn
TTITLE15=Outro (Barry)
TTITLE16=
EXTD=
EXTT0=
EXTT1=
EXTT2=
EXTT3=
EXTT4=
EXTT5=
EXTT6=
EXTT7=
EXTT8=
EXTT9=
EXTT10=
EXTT11=
EXTT12=
EXTT13=
EXTT14=
EXTT15=
EXTT16=
PLAYORDER=
